<?xml version="1.0" standalone="no"?>
<svg xmlns:xlink="http://www.w3.org/1999/xlink" id="wave" style="transform:rotate(180deg); transition: 0.3s" viewBox="0 0 1440 100" version="1.1" xmlns="http://www.w3.org/2000/svg"><defs><linearGradient id="sw-gradient-0" x1="0" x2="0" y1="1" y2="0"><stop stop-color="rgba(255, 249, 234, 1)" offset="0%"/><stop stop-color="rgba(255, 249, 234, 1)" offset="100%"/></linearGradient></defs><path style="transform:translate(0, 0px); opacity:1" fill="url(#sw-gradient-0)" d="M0,60L40,51.7C80,43,160,27,240,31.7C320,37,400,63,480,68.3C560,73,640,57,720,50C800,43,880,47,960,50C1040,53,1120,57,1200,58.3C1280,60,1360,60,1440,56.7C1520,53,1600,47,1680,51.7C1760,57,1840,73,1920,68.3C2000,63,2080,37,2160,23.3C2240,10,2320,10,2400,8.3C2480,7,2560,3,2640,10C2720,17,2800,33,2880,36.7C2960,40,3040,30,3120,31.7C3200,33,3280,47,3360,58.3C3440,70,3520,80,3600,85C3680,90,3760,90,3840,83.3C3920,77,4000,63,4080,55C4160,47,4240,43,4320,41.7C4400,40,4480,40,4560,33.3C4640,27,4720,13,4800,15C4880,17,4960,33,5040,45C5120,57,5200,63,5280,60C5360,57,5440,43,5520,38.3C5600,33,5680,37,5720,38.3L5760,40L5760,100L5720,100C5680,100,5600,100,5520,100C5440,100,5360,100,5280,100C5200,100,5120,100,5040,100C4960,100,4880,100,4800,100C4720,100,4640,100,4560,100C4480,100,4400,100,4320,100C4240,100,4160,100,4080,100C4000,100,3920,100,3840,100C3760,100,3680,100,3600,100C3520,100,3440,100,3360,100C3280,100,3200,100,3120,100C3040,100,2960,100,2880,100C2800,100,2720,100,2640,100C2560,100,2480,100,2400,100C2320,100,2240,100,2160,100C2080,100,2000,100,1920,100C1840,100,1760,100,1680,100C1600,100,1520,100,1440,100C1360,100,1280,100,1200,100C1120,100,1040,100,960,100C880,100,800,100,720,100C640,100,560,100,480,100C400,100,320,100,240,100C160,100,80,100,40,100L0,100Z"/></svg>